<svg width="24" height="24" viewBox="0 0 24 24" fill="none" xmlns="http://www.w3.org/2000/svg">
<path fill-rule="evenodd" clip-rule="evenodd" d="M22.4933 3H1.50639C0.681903 3 0.00732422 3.675 0.00732422 4.5V19.5C0.00732422 20.325 0.681903 21 1.50639 21H22.4933C23.3178 21 23.9923 20.325 23.9923 19.5V4.5C23.9923 3.675 23.3178 3 22.4933 3ZM17.9961 10.5C18.8206 10.5 19.4951 9.825 19.4951 9C19.4951 8.175 18.8206 7.5 17.9961 7.5C17.1716 7.5 16.497 8.175 16.497 9C16.497 9.825 17.1716 10.5 17.9961 10.5ZM13.4989 12L20.9942 16.5V6H3.00546V16.5L7.50265 9L11.9998 15L13.4989 12Z" fill="#1070CA"/>
</svg>
